<svg width="20" height="16" viewBox="0 0 20 16" fill="none" xmlns="http://www.w3.org/2000/svg">
<path fill-rule="evenodd" clip-rule="evenodd" d="M9.35426 7.54675C9.73999 7.81628 10.28 7.81628 10.6657 7.54675L19.4796 1.44389C19.6532 1.32838 19.6918 1.07811 19.5761 0.90484C19.171 0.365787 18.5153 0 17.7631 0H2.27615C1.54326 0 0.887527 0.346535 0.463226 0.90484C0.328221 1.07811 0.366794 1.32838 0.559658 1.44389L9.35426 7.54675Z" fill="#00029C"/>
<path fill-rule="evenodd" clip-rule="evenodd" d="M11.5526 8.81737C11.0897 9.14465 10.5497 9.29867 10.0096 9.29867C9.46962 9.29867 8.9296 9.14465 8.46673 8.81737L0.59788 3.36907C0.347156 3.19581 0 3.36907 0 3.6771V13.2838C0 13.8999 0.250721 14.4582 0.636449 14.8625C1.04146 15.286 1.62005 15.5555 2.25651 15.5555H17.7435C18.3799 15.5555 18.9585 15.286 19.3636 14.8625C19.7493 14.4582 20 13.8999 20 13.2838V3.6771C20 3.36907 19.6528 3.17655 19.4021 3.36907L11.5526 8.81737Z" fill="#00029C"/>
</svg>
