<svg width="18" height="18" viewBox="0 0 18 18" fill="none" xmlns="http://www.w3.org/2000/svg">
<path fill-rule="evenodd" clip-rule="evenodd" d="M15.3807 2.61628C13.6834 0.94186 11.3993 0 8.98952 0C4.06519 0 0 4.06047 0 8.97907C0 10.5279 0.461001 12.014 1.23632 13.3326C1.25728 13.3953 1.25728 13.4581 1.25728 13.5L0.209546 17.2047C0.104773 17.5395 0.419092 17.8744 0.77532 17.7907L4.67288 16.8488C4.71478 16.8279 4.77765 16.8488 4.81956 16.8698C6.11874 17.5605 7.5227 18 9.01048 18C13.9558 18 18 13.9395 18 9.02093C18 6.59302 17.057 4.31163 15.3807 2.61628Z" fill="#00029C"/>
<path fill-rule="evenodd" clip-rule="evenodd" d="M13.1386 10.8209C12.9081 10.7162 11.7975 10.172 11.6089 10.0883C11.4203 10.0046 11.2527 9.98366 11.106 10.193C10.9593 10.4232 10.5193 10.9255 10.3936 11.072C10.2678 11.2185 10.1212 11.2395 9.91162 11.1348C9.68111 11.0302 8.96866 10.779 8.10952 10.0255C7.43897 9.43947 6.97797 8.68598 6.85224 8.47668C6.72652 8.24645 6.83129 8.12087 6.95702 8.01622C7.06179 7.91156 7.18752 7.74412 7.29229 7.61854C7.39706 7.49296 7.43897 7.38831 7.52279 7.2418C7.60661 7.09529 7.5647 6.9697 7.50184 6.84412C7.43897 6.73947 6.99893 5.63017 6.81034 5.1697C6.60079 4.7511 6.4122 4.81389 6.28647 4.81389C6.16074 4.81389 6.01406 4.81389 5.86738 4.81389C5.7207 4.81389 5.46924 4.87668 5.2597 5.08598C5.05015 5.31622 4.48438 5.8604 4.48438 6.9697C4.48438 8.07901 5.28065 9.14645 5.40638 9.29296C5.51115 9.43947 6.99893 11.7209 9.24107 12.6837C9.76493 12.9139 10.205 13.0604 10.5193 13.1651C11.0641 13.3325 11.5461 13.3116 11.9442 13.2488C12.3633 13.186 13.2853 12.7046 13.4739 12.1813C13.6625 11.6581 13.6625 11.1976 13.5996 11.1139C13.5158 11.0092 13.3691 10.9464 13.1386 10.8209Z" fill="white"/>
</svg>
