<svg width="118" height="41" viewBox="0 0 118 41" fill="none" xmlns="http://www.w3.org/2000/svg">
<path d="M0.0151202 40.7619C0.83403 39.0476 1.47746 37.2674 2.20863 35.5091C6.0497 26.2295 9.87616 16.9499 13.688 7.67029C14.1267 6.60069 14.5361 5.52377 15.048 4.48348C15.4718 3.57802 16.1506 2.81648 17.0008 2.29261C17.851 1.76873 18.8356 1.50538 19.8333 1.53496C20.831 1.56454 21.7982 1.88578 22.6161 2.45912C23.4339 3.03246 24.0666 3.83288 24.4362 4.76186C29.3106 16.6153 34.1851 28.4713 39.0596 40.3296C39.2351 40.7619 39.1912 40.8498 38.7232 40.8424C36.888 40.8424 35.0674 40.8424 33.2248 40.8424C33.108 40.8625 32.9878 40.8373 32.8888 40.7721C32.7897 40.7068 32.719 40.6063 32.6911 40.4908C28.7915 30.5714 24.8773 20.6569 20.9485 10.7472C20.4952 9.60435 20.0492 8.4615 19.552 7.18677C15.706 16.8205 11.9186 26.337 8.12379 35.8608C8.30633 35.937 8.50732 35.9574 8.70142 35.9194C12.1598 35.9194 15.611 35.9194 19.0621 35.9194C19.4496 35.9194 19.5739 36 19.5593 36.4102C19.5593 37.7289 19.5593 39.0476 19.5593 40.3589C19.5593 40.7619 19.4715 40.8571 19.0694 40.8498C12.7326 40.8498 6.37873 40.8498 0.0078125 40.8498L0.0151202 40.7619Z" fill="#00029C"/>
<path d="M113.631 40.8939H112.615C110.963 40.8939 109.303 40.8939 107.65 40.8939C107.533 40.9139 107.413 40.8888 107.314 40.8235C107.215 40.7582 107.145 40.6577 107.117 40.5422C104.538 33.983 101.95 27.4311 99.3516 20.8866C99.344 20.8528 99.344 20.8178 99.3516 20.784C99.3516 20.6888 99.4613 20.7034 99.5271 20.7034C101.377 20.7034 103.227 20.7034 105.077 20.7034C105.376 20.7034 105.45 20.8426 105.545 21.077C106.641 23.751 107.738 26.425 108.835 29.1357C108.873 29.2395 108.936 29.3326 109.018 29.4067C110 28.0875 110.729 26.597 111.167 25.0111C112.527 19.9488 111.672 15.2895 108.36 11.2016C106.168 8.42782 103.005 6.5942 99.5125 6.07338C96.0001 5.5383 92.4143 6.32339 89.4448 8.27762C86.4753 10.2319 84.3318 13.2172 83.4267 16.6595C82.7474 18.9608 82.6455 21.3945 83.1302 23.7447C83.6149 26.095 84.6711 28.289 86.2052 30.132C88.3181 32.8368 91.3546 34.6633 94.7306 35.2602C95.9389 35.4547 97.1645 35.5185 98.3864 35.4507C98.5137 35.4328 98.643 35.4636 98.7487 35.5369C98.8543 35.6102 98.9286 35.7206 98.9568 35.8463C99.5271 37.3115 100.112 38.7767 100.697 40.2419C100.807 40.5203 100.858 40.6375 100.448 40.6888C97.6876 41.1327 94.865 41.0007 92.1575 40.301C89.45 39.6014 86.9158 38.3492 84.7136 36.6228C80.9105 33.741 78.277 29.5773 77.2995 24.9012C76.678 22.0275 76.6951 19.0519 77.3496 16.1855C78.0042 13.3192 79.2801 10.6322 81.087 8.31514C83.9182 4.64395 87.9215 2.05783 92.4274 0.98913C94.2901 0.503938 96.2154 0.303874 98.1379 0.395726C100.959 0.497593 103.728 1.18503 106.271 2.41453C108.813 3.64404 111.073 5.38885 112.907 7.53858C115.334 10.2949 116.924 13.6879 117.492 17.3188C117.995 20.1542 117.875 23.0656 117.138 25.8494C116.402 28.6333 115.068 31.2224 113.229 33.436C112.753 34.0109 112.245 34.5588 111.708 35.077C111.593 35.1559 111.514 35.2766 111.486 35.4135C111.459 35.5504 111.486 35.6926 111.562 35.8096C112.257 37.4433 112.915 39.0844 113.587 40.7254C113.602 40.762 113.609 40.762 113.631 40.8939Z" fill="#00029C"/>
<path d="M59.3422 7.69225C54.692 7.69225 50.0466 7.69225 45.4061 7.69225C44.9674 7.69225 44.8504 7.59702 44.8577 7.15013C44.8577 5.50911 44.8577 3.87541 44.8577 2.23438C44.8577 1.89006 44.9455 1.79482 45.2964 1.80214H73.3733C73.7243 1.80214 73.8193 1.88273 73.8193 2.23438C73.8193 3.89006 73.8193 5.54574 73.8193 7.20141C73.8193 7.59702 73.7243 7.69225 73.3295 7.69225C68.6646 7.68737 64.0022 7.68737 59.3422 7.69225Z" fill="#00029C"/>
<path d="M59.3422 40.8935H45.3622C44.9893 40.8935 44.8504 40.8423 44.8577 40.4173C44.8577 38.747 44.8577 37.0767 44.8577 35.4064C44.8577 35.0474 44.9601 34.9668 45.3037 34.9668C54.6578 34.9668 64.0143 34.9668 73.3733 34.9668C73.7754 34.9668 73.8193 35.106 73.812 35.4503C73.812 37.106 73.812 38.7617 73.812 40.41C73.812 40.8203 73.7096 40.9009 73.3148 40.8935C68.6646 40.8862 63.9997 40.8935 59.3422 40.8935Z" fill="#00029C"/>
<path d="M55.2842 24.1758C51.972 24.1758 48.7037 24.1758 45.3549 24.1758C44.9674 24.1758 44.8504 24.0952 44.8577 23.6849C44.8577 22.0146 44.8577 20.3443 44.8577 18.6739C44.8577 18.315 44.9601 18.2417 45.3038 18.2417H65.3086C65.6595 18.2417 65.8058 18.293 65.7984 18.6959C65.7984 20.3662 65.7984 22.0366 65.7984 23.7069C65.7984 24.0952 65.6741 24.1684 65.3159 24.1684C61.9671 24.1684 58.6257 24.1758 55.2842 24.1758Z" fill="#00029C"/>
</svg>
